<?xml version="1.0" encoding="utf-8"?>
<!-- Generator: Adobe Illustrator 28.1.0, SVG Export Plug-In . SVG Version: 6.00 Build 0)  -->
<svg version="1.1" id="Layer_1" xmlns="http://www.w3.org/2000/svg" xmlns:xlink="http://www.w3.org/1999/xlink" x="0px" y="0px"
	 viewBox="0 0 79.5 79.5" style="enable-background:new 0 0 79.5 79.5;" xml:space="preserve">
<style type="text/css">
	.st0{fill:#000000;stroke:#FFFFFF;stroke-miterlimit:10;}
	.st1{fill:#FFFFFF;stroke:#FFFFFF;stroke-miterlimit:10;}
</style>
<circle class="st0" cx="39.7" cy="39.7" r="39.2"/>
<path class="st1" d="M21.3,22.8l-6.6,5.5c-0.5,0.4-0.2,1.3,0.5,1.3h42.2c0.5,0,0.8,0.5,0.7,1L56,36.7c-0.1,0.3-0.4,0.5-0.7,0.5H38.9
	c-0.3,0-0.6,0.2-0.7,0.5l-1.7,4.4c-0.2,0.5,0.2,1,0.7,1h15.9c0.5,0,0.8,0.5,0.7,1l-2.5,7.7c-0.1,0.3-0.4,0.5-0.7,0.5H26.9
	c-0.5,0-0.8-0.5-0.7-0.9l4.7-16.8c0.1-0.3-0.1-0.7-0.3-0.8l-5-2.9c-0.4-0.2-0.9,0-1.1,0.4l-7.8,26.6c-0.2,0.5,0.2,0.9,0.7,0.9h31.7
	c0.1,0,0.2,0,0.3-0.1l7.9-3.8c0.2-0.1,0.3-0.2,0.4-0.4l3.1-9.1c0.1-0.2,0-0.6-0.2-0.7l-3.7-3.7c-0.3-0.3-0.2-1,0.2-1.2l5.7-2.7
	c0.2-0.1,0.3-0.2,0.3-0.4l3.4-9.1c0.1-0.3,0-0.7-0.2-0.8l-4.7-4c-0.2-0.1-0.2-0.2-0.5-0.2H21.8C21.7,22.6,21.5,22.7,21.3,22.8
	L21.3,22.8z"/>
</svg>
