<?xml version="1.0" encoding="UTF-8"?>
<svg xmlns="http://www.w3.org/2000/svg" xmlns:xlink="http://www.w3.org/1999/xlink" width="400pt" height="400pt" viewBox="0 0 400 400" version="1.1">
<g id="surface1">
<path style=" stroke:none;fill-rule:nonzero;fill:rgb(32%,32%,32%);fill-opacity:1;" d="M 400 200 C 400 310.457031 310.457031 400 200 400 C 89.542969 400 0 310.457031 0 200 C 0 89.542969 89.542969 0 200 0 C 310.457031 0 400 89.542969 400 200 Z M 400 200 "/>
<path style=" stroke:none;fill-rule:nonzero;fill:rgb(100%,100%,100%);fill-opacity:1;" d="M 141.679688 253.121094 C 129.761719 253.121094 120 250.320312 112.398438 244.71875 C 104.878906 239.039062 101.121094 230.878906 101.121094 220.398438 C 101.121094 218.160156 101.359375 215.519531 101.839844 212.320312 C 103.121094 205.121094 104.960938 196.480469 107.359375 186.320312 C 114.160156 158.800781 131.761719 145.039062 160.078125 145.039062 C 167.761719 145.039062 174.71875 146.320312 180.800781 148.960938 C 186.878906 151.441406 191.679688 155.28125 195.199219 160.398438 C 198.71875 165.441406 200.480469 171.441406 200.480469 178.398438 C 200.480469 180.480469 200.238281 183.121094 199.761719 186.320312 C 198.238281 195.199219 196.480469 203.921875 194.320312 212.320312 C 190.800781 226 184.800781 236.320312 176.160156 243.121094 C 167.601562 249.839844 156.078125 253.121094 141.679688 253.121094 Z M 143.839844 231.519531 C 149.441406 231.519531 154.160156 229.839844 158.078125 226.558594 C 162.078125 223.28125 164.960938 218.238281 166.640625 211.359375 C 168.960938 201.921875 170.71875 193.761719 171.921875 186.71875 C 172.320312 184.640625 172.558594 182.480469 172.558594 180.238281 C 172.558594 171.121094 167.839844 166.558594 158.320312 166.558594 C 152.71875 166.558594 147.921875 168.238281 143.921875 171.519531 C 140 174.800781 137.199219 179.839844 135.519531 186.71875 C 133.679688 193.441406 131.921875 201.601562 130.078125 211.359375 C 129.679688 213.359375 129.441406 215.441406 129.441406 217.679688 C 129.359375 226.960938 134.238281 231.519531 143.839844 231.519531 Z M 143.839844 231.519531 "/>
<path style=" stroke:none;fill-rule:nonzero;fill:rgb(100%,100%,100%);fill-opacity:1;" d="M 207.441406 251.679688 C 206.320312 251.679688 205.519531 251.359375 204.878906 250.640625 C 204.398438 249.839844 204.238281 248.960938 204.398438 247.921875 L 225.121094 150.320312 C 225.28125 149.199219 225.839844 148.320312 226.800781 147.601562 C 227.679688 146.878906 228.640625 146.558594 229.679688 146.558594 L 269.601562 146.558594 C 280.71875 146.558594 289.601562 148.878906 296.320312 153.441406 C 303.121094 158.078125 306.558594 164.71875 306.558594 173.441406 C 306.558594 175.921875 306.238281 178.558594 305.679688 181.28125 C 303.199219 192.800781 298.160156 201.28125 290.480469 206.800781 C 282.960938 212.320312 272.640625 215.039062 259.519531 215.039062 L 239.28125 215.039062 L 232.398438 247.921875 C 232.160156 249.039062 231.679688 249.921875 230.71875 250.640625 C 229.839844 251.359375 228.878906 251.679688 227.839844 251.679688 Z M 260.558594 194.320312 C 264.800781 194.320312 268.398438 193.199219 271.519531 190.878906 C 274.71875 188.558594 276.800781 185.28125 277.839844 180.960938 C 278.160156 179.28125 278.320312 177.761719 278.320312 176.480469 C 278.320312 173.601562 277.441406 171.359375 275.761719 169.839844 C 274.078125 168.238281 271.121094 167.441406 267.039062 167.441406 L 249.039062 167.441406 L 243.359375 194.320312 Z M 260.558594 194.320312 "/>
</g>
</svg>
